solid OVHD_PANEL_FULL
facet normal 1.0 -7.45519777752521e-33 -7.04991620636974e-17
  outer loop
    vertex 203.00000000000034 80.99999999999999 17.419999999999863
    vertex 203.00000000000034 0.9999999999999791 17.51999999999987
    vertex 203.00000000000034 0.9999999999999791 17.419999999999874
  endloop
endfacet
facet normal 1.0 -7.45519777752521e-33 -7.04991620636974e-17
  outer loop
    vertex 203.00000000000034 0.9999999999999791 17.51999999999987
    vertex 203.00000000000034 80.99999999999999 17.419999999999863
    vertex 203.00000000000034 80.99999999999999 17.519999999999865
  endloop
endfacet
facet normal -7.455197777525208e-33 1.0 -1.0574874309554612e-16
  outer loop
    vertex 163.0000000000003 80.99999999999999 17.419999999999867
    vertex 203.00000000000034 80.99999999999999 17.519999999999865
    vertex 203.00000000000034 80.99999999999999 17.419999999999863
  endloop
endfacet
facet normal -7.455197777525208e-33 1.0 -1.0574874309554612e-16
  outer loop
    vertex 203.00000000000034 80.99999999999999 17.519999999999865
    vertex 163.0000000000003 80.99999999999999 17.419999999999867
    vertex 163.0000000000003 80.99999999999999 17.519999999999868
  endloop
endfacet
facet normal -1.0 7.45519777752521e-33 7.04991620636974e-17
  outer loop
    vertex 163.0000000000003 80.99999999999999 17.519999999999868
    vertex 163.0000000000003 0.9999999999999756 17.419999999999877
    vertex 163.0000000000003 0.9999999999999756 17.519999999999875
  endloop
endfacet
facet normal -1.0 7.45519777752521e-33 7.04991620636974e-17
  outer loop
    vertex 163.0000000000003 0.9999999999999756 17.419999999999877
    vertex 163.0000000000003 80.99999999999999 17.519999999999868
    vertex 163.0000000000003 80.99999999999999 17.419999999999867
  endloop
endfacet
facet normal 8.812395257962176e-17 -1.0 1.0574874309554612e-16
  outer loop
    vertex 203.00000000000034 0.9999999999999791 17.51999999999987
    vertex 163.0000000000003 0.9999999999999756 17.419999999999877
    vertex 203.00000000000034 0.9999999999999791 17.419999999999874
  endloop
endfacet
facet normal 8.812395257962176e-17 -1.0 1.0574874309554612e-16
  outer loop
    vertex 163.0000000000003 0.9999999999999756 17.419999999999877
    vertex 203.00000000000034 0.9999999999999791 17.51999999999987
    vertex 163.0000000000003 0.9999999999999756 17.519999999999875
  endloop
endfacet
facet normal 7.04991620636974e-17 1.0574874309554612e-16 1.0
  outer loop
    vertex 203.00000000000034 0.9999999999999791 17.51999999999987
    vertex 163.0000000000003 80.99999999999999 17.519999999999868
    vertex 163.0000000000003 0.9999999999999756 17.519999999999875
  endloop
endfacet
facet normal 7.04991620636974e-17 1.0574874309554612e-16 1.0
  outer loop
    vertex 163.0000000000003 80.99999999999999 17.519999999999868
    vertex 203.00000000000034 0.9999999999999791 17.51999999999987
    vertex 203.00000000000034 80.99999999999999 17.519999999999865
  endloop
endfacet
facet normal -7.04991620636974e-17 -1.0574874309554612e-16 -1.0
  outer loop
    vertex 203.00000000000034 80.99999999999999 17.419999999999863
    vertex 163.0000000000003 0.9999999999999756 17.419999999999877
    vertex 163.0000000000003 80.99999999999999 17.419999999999867
  endloop
endfacet
facet normal -7.04991620636974e-17 -1.0574874309554612e-16 -1.0
  outer loop
    vertex 163.0000000000003 0.9999999999999756 17.419999999999877
    vertex 203.00000000000034 80.99999999999999 17.419999999999863
    vertex 203.00000000000034 0.9999999999999791 17.419999999999874
  endloop
endfacet
endsolid OVHD_PANEL_FULL
