solid OVHD_PANEL_FULL
facet normal -1.0 -9.900499684616389e-17 5.825366644089735e-17
  outer loop
    vertex 162.00000000000006 82.00000000000001 17.279999999999994
    vertex 162.00000000000006 1.6021514680299514e-14 17.42
    vertex 162.00000000000006 82.00000000000001 17.41999999999999
  endloop
endfacet
facet normal -1.0 -9.900499684616389e-17 5.825366644089735e-17
  outer loop
    vertex 162.00000000000006 1.6021514680299514e-14 17.42
    vertex 162.00000000000006 82.00000000000001 17.279999999999994
    vertex 162.00000000000006 1.6004219871520473e-14 17.28
  endloop
endfacet
facet normal 5.825366644089734e-17 1.2138498372466063e-16 1.0
  outer loop
    vertex 204.00000000000009 2.01797245478384e-14 17.419999999999998
    vertex 203.00000000000009 1.0000000000000224 17.419999999999995
    vertex 162.00000000000006 1.6021514680299514e-14 17.42
  endloop
endfacet
facet normal 5.825366644089734e-17 1.2138498372466063e-16 1.0
  outer loop
    vertex 203.00000000000009 1.0000000000000224 17.419999999999995
    vertex 204.00000000000009 2.01797245478384e-14 17.419999999999998
    vertex 204.00000000000009 82.00000000000001 17.419999999999987
  endloop
endfacet
facet normal 5.825366644089734e-17 1.2138498372466063e-16 1.0
  outer loop
    vertex 162.00000000000006 1.6021514680299514e-14 17.42
    vertex 203.00000000000009 1.0000000000000224 17.419999999999995
    vertex 163.00000000000006 1.0000000000000144 17.419999999999998
  endloop
endfacet
facet normal 5.825366644089734e-17 1.2138498372466063e-16 1.0
  outer loop
    vertex 203.00000000000009 1.0000000000000224 17.419999999999995
    vertex 204.00000000000009 82.00000000000001 17.419999999999987
    vertex 203.00000000000006 81.00000000000001 17.419999999999984
  endloop
endfacet
facet normal 5.825366644089734e-17 1.2138498372466063e-16 1.0
  outer loop
    vertex 203.00000000000006 81.00000000000001 17.419999999999984
    vertex 204.00000000000009 82.00000000000001 17.419999999999987
    vertex 163.00000000000006 81.00000000000001 17.419999999999987
  endloop
endfacet
facet normal 5.825366644089734e-17 1.2138498372466063e-16 1.0
  outer loop
    vertex 163.00000000000006 1.0000000000000144 17.419999999999998
    vertex 162.00000000000006 82.00000000000001 17.41999999999999
    vertex 162.00000000000006 1.6021514680299514e-14 17.42
  endloop
endfacet
facet normal 5.825366644089734e-17 1.2138498372466063e-16 1.0
  outer loop
    vertex 162.00000000000006 82.00000000000001 17.41999999999999
    vertex 163.00000000000006 1.0000000000000144 17.419999999999998
    vertex 163.00000000000006 81.00000000000001 17.419999999999987
  endloop
endfacet
facet normal 5.825366644089734e-17 1.2138498372466063e-16 1.0
  outer loop
    vertex 162.00000000000006 82.00000000000001 17.41999999999999
    vertex 163.00000000000006 81.00000000000001 17.419999999999987
    vertex 204.00000000000009 82.00000000000001 17.419999999999987
  endloop
endfacet
facet normal 1.0 9.900499684616389e-17 -5.825366644089735e-17
  outer loop
    vertex 204.00000000000009 2.0162429739059357e-14 17.279999999999998
    vertex 204.00000000000009 82.00000000000001 17.419999999999987
    vertex 204.00000000000009 2.01797245478384e-14 17.419999999999998
  endloop
endfacet
facet normal 1.0 9.900499684616389e-17 -5.825366644089735e-17
  outer loop
    vertex 204.00000000000009 82.00000000000001 17.419999999999987
    vertex 204.00000000000009 2.0162429739059357e-14 17.279999999999998
    vertex 204.00000000000009 82.00000000000001 17.27999999999999
  endloop
endfacet
facet normal 9.90049968461639e-17 -1.0 1.2138498372466063e-16
  outer loop
    vertex 204.00000000000009 2.0162429739059357e-14 17.279999999999998
    vertex 162.00000000000006 1.6021514680299514e-14 17.42
    vertex 162.00000000000006 1.6004219871520473e-14 17.28
  endloop
endfacet
facet normal 9.90049968461639e-17 -1.0 1.2138498372466063e-16
  outer loop
    vertex 162.00000000000006 1.6021514680299514e-14 17.42
    vertex 204.00000000000009 2.0162429739059357e-14 17.279999999999998
    vertex 204.00000000000009 2.01797245478384e-14 17.419999999999998
  endloop
endfacet
facet normal -9.90049968461639e-17 1.0 -1.2138498372466063e-16
  outer loop
    vertex 204.00000000000009 82.00000000000001 17.419999999999987
    vertex 162.00000000000006 82.00000000000001 17.279999999999994
    vertex 162.00000000000006 82.00000000000001 17.41999999999999
  endloop
endfacet
facet normal -9.90049968461639e-17 1.0 -1.2138498372466063e-16
  outer loop
    vertex 162.00000000000006 82.00000000000001 17.279999999999994
    vertex 204.00000000000009 82.00000000000001 17.419999999999987
    vertex 204.00000000000009 82.00000000000001 17.27999999999999
  endloop
endfacet
facet normal 1.0 9.900499684616389e-17 -5.825366644089735e-17
  outer loop
    vertex 163.00000000000006 1.0000000000000144 17.279999999999998
    vertex 163.00000000000006 81.00000000000001 17.419999999999987
    vertex 163.00000000000006 1.0000000000000144 17.419999999999998
  endloop
endfacet
facet normal 1.0 9.900499684616389e-17 -5.825366644089735e-17
  outer loop
    vertex 163.00000000000006 81.00000000000001 17.419999999999987
    vertex 163.00000000000006 1.0000000000000144 17.279999999999998
    vertex 163.00000000000006 81.00000000000001 17.279999999999987
  endloop
endfacet
facet normal -2.0475373994171007e-16 1.0 -1.2138498372466063e-16
  outer loop
    vertex 203.00000000000009 1.0000000000000224 17.419999999999995
    vertex 163.00000000000006 1.0000000000000144 17.279999999999998
    vertex 163.00000000000006 1.0000000000000144 17.419999999999998
  endloop
endfacet
facet normal -2.0475373994171007e-16 1.0 -1.2138498372466063e-16
  outer loop
    vertex 163.00000000000006 1.0000000000000144 17.279999999999998
    vertex 203.00000000000009 1.0000000000000224 17.419999999999995
    vertex 203.00000000000009 1.0000000000000224 17.279999999999994
  endloop
endfacet
facet normal 9.90049968461639e-17 -1.0 1.2138498372466063e-16
  outer loop
    vertex 203.00000000000006 81.00000000000001 17.279999999999983
    vertex 163.00000000000006 81.00000000000001 17.419999999999987
    vertex 163.00000000000006 81.00000000000001 17.279999999999987
  endloop
endfacet
facet normal 9.90049968461639e-17 -1.0 1.2138498372466063e-16
  outer loop
    vertex 163.00000000000006 81.00000000000001 17.419999999999987
    vertex 203.00000000000006 81.00000000000001 17.279999999999983
    vertex 203.00000000000006 81.00000000000001 17.419999999999984
  endloop
endfacet
facet normal -1.0 -9.900499684616389e-17 5.825366644089735e-17
  outer loop
    vertex 203.00000000000006 81.00000000000001 17.279999999999983
    vertex 203.00000000000009 1.0000000000000224 17.419999999999995
    vertex 203.00000000000006 81.00000000000001 17.419999999999984
  endloop
endfacet
facet normal -1.0 -9.900499684616389e-17 5.825366644089735e-17
  outer loop
    vertex 203.00000000000009 1.0000000000000224 17.419999999999995
    vertex 203.00000000000006 81.00000000000001 17.279999999999983
    vertex 203.00000000000009 1.0000000000000224 17.279999999999994
  endloop
endfacet
facet normal -5.825366644089734e-17 -1.2138498372466063e-16 -1.0
  outer loop
    vertex 162.00000000000006 1.6004219871520473e-14 17.28
    vertex 163.00000000000006 1.0000000000000144 17.279999999999998
    vertex 204.00000000000009 2.0162429739059357e-14 17.279999999999998
  endloop
endfacet
facet normal -5.825366644089734e-17 -1.2138498372466063e-16 -1.0
  outer loop
    vertex 163.00000000000006 1.0000000000000144 17.279999999999998
    vertex 162.00000000000006 1.6004219871520473e-14 17.28
    vertex 162.00000000000006 82.00000000000001 17.279999999999994
  endloop
endfacet
facet normal -5.825366644089734e-17 -1.2138498372466063e-16 -1.0
  outer loop
    vertex 163.00000000000006 1.0000000000000144 17.279999999999998
    vertex 162.00000000000006 82.00000000000001 17.279999999999994
    vertex 163.00000000000006 81.00000000000001 17.279999999999987
  endloop
endfacet
facet normal -5.825366644089734e-17 -1.2138498372466063e-16 -1.0
  outer loop
    vertex 163.00000000000006 81.00000000000001 17.279999999999987
    vertex 162.00000000000006 82.00000000000001 17.279999999999994
    vertex 203.00000000000006 81.00000000000001 17.279999999999983
  endloop
endfacet
facet normal -5.825366644089734e-17 -1.2138498372466063e-16 -1.0
  outer loop
    vertex 204.00000000000009 2.0162429739059357e-14 17.279999999999998
    vertex 203.00000000000009 1.0000000000000224 17.279999999999994
    vertex 204.00000000000009 82.00000000000001 17.27999999999999
  endloop
endfacet
facet normal -5.825366644089734e-17 -1.2138498372466063e-16 -1.0
  outer loop
    vertex 203.00000000000009 1.0000000000000224 17.279999999999994
    vertex 204.00000000000009 2.0162429739059357e-14 17.279999999999998
    vertex 163.00000000000006 1.0000000000000144 17.279999999999998
  endloop
endfacet
facet normal -5.825366644089734e-17 -1.2138498372466063e-16 -1.0
  outer loop
    vertex 204.00000000000009 82.00000000000001 17.27999999999999
    vertex 203.00000000000009 1.0000000000000224 17.279999999999994
    vertex 203.00000000000006 81.00000000000001 17.279999999999983
  endloop
endfacet
facet normal -5.825366644089734e-17 -1.2138498372466063e-16 -1.0
  outer loop
    vertex 204.00000000000009 82.00000000000001 17.27999999999999
    vertex 203.00000000000006 81.00000000000001 17.279999999999983
    vertex 162.00000000000006 82.00000000000001 17.279999999999994
  endloop
endfacet
endsolid OVHD_PANEL_FULL
