solid OVHD_PANEL_SUPPORT
facet normal 0.0 0.0 -1.0
  outer loop
    vertex 100.0 50.0 0.0
    vertex -15.0 0.0 0.0
    vertex -15.0 50.0 0.0
  endloop
endfacet
facet normal 0.0 0.0 -1.0
  outer loop
    vertex -15.0 0.0 0.0
    vertex 100.0 50.0 0.0
    vertex 100.0 0.0 0.0
  endloop
endfacet
facet normal -0.08715574274765812 -3.1394723466692e-17 0.9961946980917455
  outer loop
    vertex 37.21584410242178 0.0 6.25596446251002
    vertex 0.0 50.0 3.0
    vertex 0.0 0.0 3.0
  endloop
endfacet
facet normal -0.08715574274765812 -3.1394723466692e-17 0.9961946980917455
  outer loop
    vertex 0.0 50.0 3.0
    vertex 37.21584410242178 0.0 6.25596446251002
    vertex 37.21584410242177 50.0 6.255964462510022
  endloop
endfacet
facet normal -0.9827994473180726 -1.196717075917438e-16 0.1846760578724032
  outer loop
    vertex 42.010313420372434 50.0 31.77092211403727
    vertex 37.21584410242178 0.0 6.25596446251002
    vertex 42.010313420372434 -5.639932965095795e-15 31.77092211403727
  endloop
endfacet
facet normal -0.9827994473180726 -1.196717075917438e-16 0.1846760578724032
  outer loop
    vertex 37.21584410242178 0.0 6.25596446251002
    vertex 42.010313420372434 50.0 31.77092211403727
    vertex 37.21584410242177 50.0 6.255964462510022
  endloop
endfacet
facet normal -0.08715574274766295 -1.9709237134554346e-17 0.9961946980917451
  outer loop
    vertex 44.998897514647695 -1.0747309241490593e-15 32.03238934228026
    vertex 42.010313420372434 50.0 31.77092211403727
    vertex 42.010313420372434 -5.639932965095795e-15 31.77092211403727
  endloop
endfacet
facet normal -0.08715574274766295 -1.9709237134554346e-17 0.9961946980917451
  outer loop
    vertex 42.010313420372434 50.0 31.77092211403727
    vertex 44.998897514647695 -1.0747309241490593e-15 32.03238934228026
    vertex 44.998897514647666 50.00000000000001 32.03238934228026
  endloop
endfacet
facet normal 0.9961946980917451 6.892833567812917e-16 0.08715574274766258
  outer loop
    vertex 47.17779108333927 0.0 7.127521889986622
    vertex 44.998897514647666 50.00000000000001 32.03238934228026
    vertex 44.998897514647695 -1.0747309241490593e-15 32.03238934228026
  endloop
endfacet
facet normal 0.9961946980917451 6.892833567812917e-16 0.08715574274766258
  outer loop
    vertex 44.998897514647666 50.00000000000001 32.03238934228026
    vertex 47.17779108333927 0.0 7.127521889986622
    vertex 47.17779108333922 50.00000000000001 7.127521889986604
  endloop
endfacet
facet normal -0.08715574274765804 2.1906763798034575e-16 0.9961946980917455
  outer loop
    vertex 47.17779108333927 0.0 7.127521889986622
    vertex 96.9875259879265 50.00000000000001 11.485309027369508
    vertex 47.17779108333922 50.00000000000001 7.127521889986604
  endloop
endfacet
facet normal -0.08715574274765804 2.1906763798034575e-16 0.9961946980917455
  outer loop
    vertex 96.9875259879265 50.00000000000001 11.485309027369508
    vertex 47.17779108333927 0.0 7.127521889986622
    vertex 96.98752598792655 1.2523166870383562e-30 11.48530902736952
  endloop
endfacet
facet normal 0.9961946980917455 4.51912376297919e-16 0.08715574274765764
  outer loop
    vertex 100.0 0.0 0.0
    vertex 98.5441366703717 50.00000000000001 16.640594003323557
    vertex 98.54413667037174 -2.7389012315258304e-16 16.64059400332356
  endloop
endfacet
facet normal 0.9961946980917455 4.51912376297919e-16 0.08715574274765764
  outer loop
    vertex 98.5441366703717 50.00000000000001 16.640594003323557
    vertex 100.0 0.0 0.0
    vertex 100.0 50.0 0.0
  endloop
endfacet
facet normal -0.08715574274765943 -5.477802463051657e-17 0.9961946980917455
  outer loop
    vertex 96.55174727418824 -2.7389012315258304e-16 16.46628251782824
    vertex 98.5441366703717 50.00000000000001 16.640594003323557
    vertex 96.5517472741882 50.00000000000001 16.46628251782824
  endloop
endfacet
facet normal -0.08715574274765943 -5.477802463051657e-17 0.9961946980917455
  outer loop
    vertex 98.5441366703717 50.00000000000001 16.640594003323557
    vertex 96.55174727418824 -2.7389012315258304e-16 16.46628251782824
    vertex 98.54413667037174 -2.7389012315258304e-16 16.64059400332356
  endloop
endfacet
facet normal 1.0669651990756736e-17 -1.0 -1.1071517959120276e-16
  outer loop
    vertex 100.0 0.0 0.0
    vertex 96.98752598792655 1.2523166870383562e-30 11.48530902736952
    vertex -15.0 0.0 0.0
  endloop
endfacet
facet normal 1.0669651990756736e-17 -1.0 -1.1071517959120276e-16
  outer loop
    vertex 96.98752598792655 1.2523166870383562e-30 11.48530902736952
    vertex 100.0 0.0 0.0
    vertex 98.54413667037174 -2.7389012315258304e-16 16.64059400332356
  endloop
endfacet
facet normal 1.0669651990756736e-17 -1.0 -1.1071517959120276e-16
  outer loop
    vertex -15.0 0.0 0.0
    vertex 96.98752598792655 1.2523166870383562e-30 11.48530902736952
    vertex 37.21584410242178 0.0 6.25596446251002
  endloop
endfacet
facet normal 1.0669651990756736e-17 -1.0 -1.1071517959120276e-16
  outer loop
    vertex -15.0 0.0 0.0
    vertex 37.21584410242178 0.0 6.25596446251002
    vertex 0.0 0.0 3.0
  endloop
endfacet
facet normal 1.0669651990756736e-17 -1.0 -1.1071517959120276e-16
  outer loop
    vertex 37.21584410242178 0.0 6.25596446251002
    vertex 96.98752598792655 1.2523166870383562e-30 11.48530902736952
    vertex 47.17779108333927 0.0 7.127521889986622
  endloop
endfacet
facet normal 1.0669651990756736e-17 -1.0 -1.1071517959120276e-16
  outer loop
    vertex 96.98752598792655 1.2523166870383562e-30 11.48530902736952
    vertex 98.54413667037174 -2.7389012315258304e-16 16.64059400332356
    vertex 96.55174727418824 -2.7389012315258304e-16 16.46628251782824
  endloop
endfacet
facet normal 1.0669651990756736e-17 -1.0 -1.1071517959120276e-16
  outer loop
    vertex 47.17779108333927 0.0 7.127521889986622
    vertex 42.010313420372434 -5.639932965095795e-15 31.77092211403727
    vertex 37.21584410242178 0.0 6.25596446251002
  endloop
endfacet
facet normal 1.0669651990756736e-17 -1.0 -1.1071517959120276e-16
  outer loop
    vertex 42.010313420372434 -5.639932965095795e-15 31.77092211403727
    vertex 47.17779108333927 0.0 7.127521889986622
    vertex 44.998897514647695 -1.0747309241490593e-15 32.03238934228026
  endloop
endfacet
facet normal 1.0669651990756736e-17 -1.0 -1.1071517959120276e-16
  outer loop
    vertex -15.0 0.0 3.0
    vertex -15.0 0.0 0.0
    vertex 0.0 0.0 3.0
  endloop
endfacet
facet normal -0.9961946980917455 -9.087439920939675e-16 -0.08715574274765928
  outer loop
    vertex 96.5517472741882 50.00000000000001 16.46628251782824
    vertex 96.98752598792655 1.2523166870383562e-30 11.48530902736952
    vertex 96.55174727418824 -2.7389012315258304e-16 16.46628251782824
  endloop
endfacet
facet normal -0.9961946980917455 -9.087439920939675e-16 -0.08715574274765928
  outer loop
    vertex 96.98752598792655 1.2523166870383562e-30 11.48530902736952
    vertex 96.5517472741882 50.00000000000001 16.46628251782824
    vertex 96.9875259879265 50.00000000000001 11.485309027369508
  endloop
endfacet
facet normal -9.442207159996844e-17 1.0 -7.688082038597388e-17
  outer loop
    vertex 42.010313420372434 50.0 31.77092211403727
    vertex 47.17779108333922 50.00000000000001 7.127521889986604
    vertex 37.21584410242177 50.0 6.255964462510022
  endloop
endfacet
facet normal -9.442207159996844e-17 1.0 -7.688082038597388e-17
  outer loop
    vertex 47.17779108333922 50.00000000000001 7.127521889986604
    vertex 42.010313420372434 50.0 31.77092211403727
    vertex 44.998897514647666 50.00000000000001 32.03238934228026
  endloop
endfacet
facet normal -9.442207159996844e-17 1.0 -7.688082038597388e-17
  outer loop
    vertex -15.0 50.0 3.0
    vertex 100.0 50.0 0.0
    vertex -15.0 50.0 0.0
  endloop
endfacet
facet normal -9.442207159996844e-17 1.0 -7.688082038597388e-17
  outer loop
    vertex 100.0 50.0 0.0
    vertex -15.0 50.0 3.0
    vertex 0.0 50.0 3.0
  endloop
endfacet
facet normal -9.442207159996844e-17 1.0 -7.688082038597388e-17
  outer loop
    vertex 100.0 50.0 0.0
    vertex 0.0 50.0 3.0
    vertex 96.9875259879265 50.00000000000001 11.485309027369508
  endloop
endfacet
facet normal -9.442207159996844e-17 1.0 -7.688082038597388e-17
  outer loop
    vertex 100.0 50.0 0.0
    vertex 96.9875259879265 50.00000000000001 11.485309027369508
    vertex 98.5441366703717 50.00000000000001 16.640594003323557
  endloop
endfacet
facet normal -9.442207159996844e-17 1.0 -7.688082038597388e-17
  outer loop
    vertex 96.9875259879265 50.00000000000001 11.485309027369508
    vertex 0.0 50.0 3.0
    vertex 37.21584410242177 50.0 6.255964462510022
  endloop
endfacet
facet normal -9.442207159996844e-17 1.0 -7.688082038597388e-17
  outer loop
    vertex 96.9875259879265 50.00000000000001 11.485309027369508
    vertex 37.21584410242177 50.0 6.255964462510022
    vertex 47.17779108333922 50.00000000000001 7.127521889986604
  endloop
endfacet
facet normal -9.442207159996844e-17 1.0 -7.688082038597388e-17
  outer loop
    vertex 98.5441366703717 50.00000000000001 16.640594003323557
    vertex 96.9875259879265 50.00000000000001 11.485309027369508
    vertex 96.5517472741882 50.00000000000001 16.46628251782824
  endloop
endfacet
facet normal -1.0 0.0 0.0
  outer loop
    vertex -15.0 50.0 3.0
    vertex -15.0 0.0 0.0
    vertex -15.0 0.0 3.0
  endloop
endfacet
facet normal -1.0 0.0 0.0
  outer loop
    vertex -15.0 0.0 0.0
    vertex -15.0 50.0 3.0
    vertex -15.0 50.0 0.0
  endloop
endfacet
facet normal 0.0 0.0 1.0
  outer loop
    vertex 0.0 0.0 3.0
    vertex -15.0 50.0 3.0
    vertex -15.0 0.0 3.0
  endloop
endfacet
facet normal 0.0 0.0 1.0
  outer loop
    vertex -15.0 50.0 3.0
    vertex 0.0 0.0 3.0
    vertex 0.0 50.0 3.0
  endloop
endfacet
endsolid OVHD_PANEL_SUPPORT
